# xmcd
#
# Track frame offsets:
#	150
#	11720
#	21012
#	36057
#	45070
#	60702
#	74250
#	86530
#	101335
#	112940
#	124445
#	141170
#	154107
#	176377
#	190320
#	203005
#	214770
#	234710
#	247427
#	253925
#	262477
#	272932
#	283565
#	298282
#	311837
#	325990
#
# Disc length: 4438 seconds
#
# Revision: 1
# Processed by: cddbd v1.5.2PL0 Copyright (c) Steve Scherf et al.
# Submitted via: audiograbber 1.83.01
#
DISCID=9311541a
DTITLE=Carl T.Sprague - Classic Cowboy Songs
DYEAR=1988
DGENRE=Country
TTITLE0=Home On The Range
TTITLE1=It Is No Secret
TTITLE2=Following The Cowtrail
TTITLE3=The Girl I Loved In Sunny Tennessee
TTITLE4=When The Work's All Done This Fall
TTITLE5=Kissing
TTITLE6=The Club Meeting
TTITLE7=Bad Companions
TTITLE8=Rounded Up In Glory
TTITLE9=Red River Valley
TTITLE10=Roll On Little Dogies
TTITLE11=The Last Great Roundup
TTITLE12=The Last Fierce Charge
TTITLE13=The Gambler
TTITLE14=The Boston Burglar
TTITLE15=The Orphan Girl
TTITLE16=Utah Carrol
TTITLE17=Just Break The News To Mother
TTITLE18=Chicken
TTITLE19=Cowman's Prayer
TTITLE20=Sarah Jane
TTITLE21=My Carrie Lee
TTITLE22=Zebra Dun
TTITLE23=The Mormon Cowboy
TTITLE24=The Cowboys Meditation
TTITLE25=The Kicking Mule
EXTD=
EXTT0=
EXTT1=
EXTT2=
EXTT3=
EXTT4=
EXTT5=
EXTT6=
EXTT7=
EXTT8=
EXTT9=
EXTT10=
EXTT11=
EXTT12=
EXTT13=
EXTT14=
EXTT15=
EXTT16=
EXTT17=
EXTT18=
EXTT19=
EXTT20=
EXTT21=
EXTT22=
EXTT23=
EXTT24=
EXTT25=
PLAYORDER=
